<svg width="25" height="25" viewBox="0 0 25 25" fill="none" xmlns="http://www.w3.org/2000/svg">
<path d="M12.5007 22.9167C6.74753 22.9167 2.08398 18.2532 2.08398 12.5C2.08398 6.74692 6.74753 2.08337 12.5007 2.08337C18.2538 2.08337 22.9173 6.74692 22.9173 12.5C22.9173 18.2532 18.2538 22.9167 12.5007 22.9167ZM12.5007 20.8334C14.7108 20.8334 16.8304 19.9554 18.3932 18.3926C19.956 16.8298 20.834 14.7102 20.834 12.5C20.834 10.2899 19.956 8.17029 18.3932 6.60748C16.8304 5.04468 14.7108 4.16671 12.5007 4.16671C10.2905 4.16671 8.1709 5.04468 6.60809 6.60748C5.04529 8.17029 4.16732 10.2899 4.16732 12.5C4.16732 14.7102 5.04529 16.8298 6.60809 18.3926C8.1709 19.9554 10.2905 20.8334 12.5007 20.8334ZM12.5007 7.29171C12.7769 7.29171 13.0419 7.40145 13.2372 7.5968C13.4326 7.79215 13.5423 8.05711 13.5423 8.33337V13.5417C13.5423 13.818 13.4326 14.0829 13.2372 14.2783C13.0419 14.4736 12.7769 14.5834 12.5007 14.5834C12.2244 14.5834 11.9594 14.4736 11.7641 14.2783C11.5687 14.0829 11.459 13.818 11.459 13.5417V8.33337C11.459 8.05711 11.5687 7.79215 11.7641 7.5968C11.9594 7.40145 12.2244 7.29171 12.5007 7.29171ZM12.5007 17.7084C12.2244 17.7084 11.9594 17.5986 11.7641 17.4033C11.5687 17.2079 11.459 16.943 11.459 16.6667C11.459 16.3904 11.5687 16.1255 11.7641 15.9301C11.9594 15.7348 12.2244 15.625 12.5007 15.625C12.7769 15.625 13.0419 15.7348 13.2372 15.9301C13.4326 16.1255 13.5423 16.3904 13.5423 16.6667C13.5423 16.943 13.4326 17.2079 13.2372 17.4033C13.0419 17.5986 12.7769 17.7084 12.5007 17.7084Z" fill="white"/>
</svg>
