<svg id="Layer_1" data-name="Layer 1" xmlns="http://www.w3.org/2000/svg" viewBox="0 0 48 48"><defs><style>.cls-1{fill:none;stroke:#000;stroke-linecap:round;stroke-linejoin:round;stroke-width:2px;}</style></defs><title>bucket</title><rect class="cls-1" x="8" y="6" width="36" height="5"/><path class="cls-1" d="M9,11H43a0,0,0,0,1,0,0V38.63A3.37,3.37,0,0,1,39.63,42H12.37A3.37,3.37,0,0,1,9,38.63V11A0,0,0,0,1,9,11Z"/><path class="cls-1" d="M31.15,15A59.31,59.31,0,0,1,24,23.51c-8.15,8.15-16.78,12.71-19.3,10.2-1.77-1.77,0-6.56,4-12.09"/><rect class="cls-1" x="-78" y="-418" width="680" height="680"/></svg>