<svg xmlns="http://www.w3.org/2000/svg" width="128" height="128" viewBox="0 0 128 128">
  <title>CAT HOUSE</title>
  <g>
    <path d="M93.81,40.66H72.18V29.21h4.35a1.75,1.75,0,0,0,1.75-1.75V20.35a1.75,1.75,0,0,0-1.75-1.75H72.18V12.8a1.75,1.75,0,0,0-1.75-1.75H63.32a1.749,1.749,0,0,0-1.75,1.75v5.8H39.79a1.751,1.751,0,0,0-1.75,1.75V46.269a7.346,7.346,0,1,0,3.5,0V29.21H61.57V40.66h-4.5a1.75,1.75,0,0,0-1.75,1.75v7.1a1.75,1.75,0,0,0,1.75,1.75h4.5V64.921H44.936a1.751,1.751,0,0,0-1.75,1.75V115.2a1.75,1.75,0,0,0,1.75,1.75H88.808a1.75,1.75,0,0,0,1.75-1.75V66.671a1.751,1.751,0,0,0-1.75-1.75H72.18V51.26H93.81a1.751,1.751,0,0,0,1.75-1.75v-7.1A1.751,1.751,0,0,0,93.81,40.66ZM65.069,14.55H68.68V18.6H65.069ZM43.635,53.4a3.847,3.847,0,1,1-3.846-3.846A3.85,3.85,0,0,1,43.635,53.4ZM41.54,22.1H74.78v3.61H41.54Zm23.53,7.11h3.61V40.66H65.07Zm21.988,84.24H46.686V68.421H87.058ZM68.68,64.921H65.07V51.26h3.61ZM92.06,47.76H58.82v-3.6H92.06Z"/>
    <path d="M66.827,110.823A14.766,14.766,0,0,0,81.586,95.542h0L80.86,74.827a1.75,1.75,0,0,0-2.846-1.3L70.837,79.3a31.092,31.092,0,0,0-4.006-.227,35.506,35.506,0,0,0-4,.227l-7.177-5.779a1.75,1.75,0,0,0-2.847,1.3L52.079,95.54a14.758,14.758,0,0,0,14.748,15.283ZM56.176,78.441,61.21,82.5a1.757,1.757,0,0,0,1.334.371,31.851,31.851,0,0,1,4.287-.29h.009a31.856,31.856,0,0,1,4.28.29,1.749,1.749,0,0,0,1.334-.371l5.029-4.05.6,17.218a11.263,11.263,0,1,1-22.511,0Z"/>
  </g>
</svg>
