<?xml version="1.0" encoding="UTF-8" standalone="no"?>
<svg
   xmlns:dc="http://purl.org/dc/elements/1.1/"
   xmlns:cc="http://creativecommons.org/ns#"
   xmlns:rdf="http://www.w3.org/1999/02/22-rdf-syntax-ns#"
   xmlns:svg="http://www.w3.org/2000/svg"
   xmlns="http://www.w3.org/2000/svg"
   width="100%"
   height="100%"
   viewBox="0 0 64 64"
   version="1.1"
   xml:space="preserve"
   style="fill-rule:evenodd;clip-rule:evenodd;stroke-linecap:round;stroke-linejoin:round;stroke-miterlimit:2;"
   id="svg15">
  <metadata
   id="metadata21">
    <rdf:RDF>
      <cc:Work
   rdf:about="">
        <dc:format>image/svg+xml</dc:format>

        <dc:type
   rdf:resource="http://purl.org/dc/dcmitype/StillImage" />

      </cc:Work>

    </rdf:RDF>

  </metadata>

  <defs
   id="defs19" />

  
  <path
   d="M32,53.002c-3.081,0.003 -6.21,-0.674 -9.166,-2.108c-10.428,-5.059 -14.787,-17.633 -9.728,-28.06c5.059,-10.428 17.633,-14.787 28.06,-9.728c9.715,4.713 14.162,15.948 10.635,25.894"
   style="fill:none;stroke:#222a33;stroke-width:2px;"
   id="path3" />

  <path
   d="M21.486,19.119c3.04,-2.476 6.88,-3.807 10.799,-3.744"
   style="fill:none;stroke:#222a33;stroke-width:2px;"
   id="path5" />

  <path
   d="M14.172,20.903l2.421,0.346c1.101,0.157 2.054,0.844 2.551,1.838c0.838,1.677 2.072,4.145 2.314,4.629c0.028,0.056 0.058,0.111 0.089,0.166c0.338,0.592 2.432,4.256 3.511,6.145c0.413,0.723 1.079,1.269 1.87,1.532c0.535,0.179 1.19,0.397 1.849,0.617c0.81,0.27 1.464,0.878 1.791,1.667c0.326,0.789 0.295,1.682 -0.087,2.445c-0.001,0.001 -0.001,0.002 -0.001,0.003c-0.361,0.721 -1.067,1.208 -1.87,1.288c-1.4,0.14 -3.697,0.37 -5.647,0.565c-0.752,0.075 -1.409,0.539 -1.732,1.222c-0.323,0.683 -0.264,1.485 0.155,2.114c0,0 0,0 0,0c0.075,0.112 0.128,0.238 0.154,0.371c0.129,0.644 0.549,2.743 0.964,4.881"
   style="fill:none;stroke:#222a33;stroke-width:2px;"
   id="path7" />

  <path
   d="M52.17,37.859c-0.574,-0.149 -1.11,-0.449 -1.545,-0.884c-0.087,-0.087 -0.169,-0.169 -0.244,-0.244c-0.35,-0.35 -0.619,-0.772 -0.788,-1.237c-0.608,-1.674 -2.16,-5.94 -3.125,-8.595c-0.535,-1.469 -1.473,-2.758 -2.707,-3.718c-0.956,-0.744 -2.157,-1.678 -3.319,-2.582c-0.918,-0.714 -1.406,-1.849 -1.291,-3.007c0.114,-1.157 0.815,-2.175 1.855,-2.695l1.803,-0.901"
   style="fill:none;stroke:#222a33;stroke-width:2px;"
   id="path9" />

  <path
   d="M54,42c0,-1.657 -1.343,-3 -3,-3c-2.859,0 -7.141,0 -10,0c-1.657,0 -3,1.343 -3,3c0,1.902 0,4.407 0,6.594c0,2.98 1.764,5.678 4.495,6.872c1.822,0.798 3.505,1.534 3.505,1.534c0,0 1.683,-0.736 3.505,-1.534c2.731,-1.194 4.495,-3.892 4.495,-6.872c0,-2.187 0,-4.692 0,-6.594Z"
   style="fill:none;stroke:#222a33;stroke-width:2px;"
   id="path11" />

  <path
   d="M42.75,47.248l2.5,2l4,-3.5"
   style="fill:none;stroke:#222a33;stroke-width:2px;"
   id="path13" />

</svg>
