<svg width="20" height="14" viewBox="0 0 20 14" fill="none" xmlns="http://www.w3.org/2000/svg">
<path d="M10.0254 2.72498C7.67539 2.72498 5.77539 4.62498 5.77539 6.97498C5.77539 9.32498 7.67539 11.225 10.0254 11.225C12.3754 11.225 14.2754 9.32498 14.2754 6.97498C14.2754 4.62498 12.3754 2.72498 10.0254 2.72498ZM10.0254 9.84998C8.45039 9.84998 7.17539 8.57498 7.17539 6.99998C7.17539 5.42498 8.45039 4.14998 10.0254 4.14998C11.6004 4.14998 12.8754 5.42498 12.8754 6.99998C12.8754 8.57498 11.5754 9.84998 10.0254 9.84998Z" fill="#1D1D1B"/>
<path d="M19.7508 6.70002C18.1008 3.50002 14.4508 0.275024 10.0008 0.275024C5.55078 0.275024 1.90078 3.50002 0.250781 6.70002C0.150781 6.87502 0.150781 7.10002 0.250781 7.30002C1.87578 10.5 5.52578 13.725 10.0008 13.725C15.0758 13.725 18.6008 9.52502 19.7508 7.30002C19.8508 7.10002 19.8508 6.87502 19.7508 6.70002ZM18.4008 7.05002C16.3508 10.4 13.2258 12.4 10.0258 12.4C8.35078 12.4 6.70078 11.875 5.17578 10.85C3.85078 9.92502 2.62578 8.62502 1.65078 7.07502L1.60078 7.02502L1.67578 6.95002C2.60078 5.42502 3.80078 4.12502 5.15078 3.20002C6.70078 2.17502 8.32578 1.65002 10.0008 1.65002C11.6758 1.65002 13.3258 2.17502 14.8508 3.20002C16.1758 4.12502 17.4008 5.42502 18.3758 6.97502L18.4258 7.02502L18.4008 7.05002Z" fill="#1D1D1B"/>
</svg>
