<svg width="15" height="16" viewBox="0 0 15 16" fill="none" xmlns="http://www.w3.org/2000/svg">
<g clip-path="url(#clip0_1995_2135)">
<path fill-rule="evenodd" clip-rule="evenodd" d="M4.57263 5.52759C4.57264 5.38732 4.5728 5.24908 4.57296 5.11223C4.57331 4.80844 4.57366 4.51152 4.57221 4.21461C4.56906 3.53434 4.73721 2.9053 5.09873 2.33333C5.82386 1.18701 7.193 0.603588 8.46924 0.896706C9.82156 1.20733 10.8134 2.29291 11.0001 3.6742C11.0265 3.87091 11.0341 4.07107 11.0366 4.26994C11.0405 4.562 11.0397 4.85416 11.039 5.14928C11.0386 5.27071 11.0383 5.39264 11.0383 5.51526C11.0894 5.51881 11.1397 5.52139 11.1896 5.52394C11.2949 5.52934 11.3977 5.53461 11.4995 5.54855C12.3551 5.66593 12.9945 6.40694 12.9968 7.29537C13.001 9.00134 13.0019 10.7075 12.9964 12.4135C12.9934 13.3849 12.2263 14.1731 11.2802 14.1748C8.96359 14.1793 6.64694 14.1795 4.33029 14.1748C3.379 14.1728 2.61582 13.3802 2.61393 12.3992C2.61036 10.7026 2.61057 9.00566 2.61393 7.30899C2.61582 6.32069 3.38005 5.53645 4.34017 5.52759C4.38647 5.52716 4.43285 5.52729 4.48434 5.52743C4.51204 5.52751 4.54121 5.52759 4.57263 5.52759ZM11.1802 13.2868H7.80001C7.4244 13.2868 7.04882 13.2868 6.67325 13.2869C5.92212 13.287 5.17102 13.2871 4.41983 13.2868C3.83405 13.2866 3.47842 12.9197 3.47842 12.3158C3.47821 10.6749 3.47821 9.03376 3.47842 7.39286C3.47863 6.78177 3.83384 6.41818 4.43076 6.41818H11.1775C11.7811 6.41818 12.1325 6.78069 12.1325 7.40389C12.1325 7.94934 12.1326 8.4948 12.1326 9.04025C12.1326 10.1312 12.1327 11.2221 12.1325 12.313C12.1325 12.9234 11.7769 13.2868 11.1802 13.2868ZM10.173 5.38103V5.52218H5.4531C5.45142 5.51556 5.44947 5.50928 5.44758 5.50321C5.44356 5.49026 5.43985 5.47834 5.43985 5.46641C5.44049 5.31512 5.43938 5.16374 5.43826 5.01235C5.4357 4.66298 5.43313 4.3136 5.45204 3.96537C5.51636 2.77495 6.45715 1.8154 7.62892 1.71986C8.77085 1.62669 9.84216 2.42217 10.1003 3.56655C10.1467 3.77233 10.164 3.98785 10.1698 4.19947C10.1774 4.47775 10.1759 4.75647 10.1743 5.03515C10.1736 5.15046 10.173 5.26576 10.173 5.38103ZM7.21698 10.347C7.21728 10.3706 7.21758 10.3943 7.21758 10.4178C7.21765 10.4688 7.21725 10.5197 7.21686 10.5706C7.21604 10.6773 7.21522 10.7841 7.21863 10.8906C7.22725 11.1636 7.40044 11.3383 7.66443 11.3461C7.74082 11.3483 7.81721 11.3475 7.8936 11.3466L7.90782 11.3465C8.22352 11.3432 8.39125 11.172 8.39335 10.8471C8.39524 10.5646 8.39629 10.2819 8.3923 9.99913C8.39083 9.90251 8.41311 9.8262 8.47364 9.74687C8.73469 9.40447 8.69706 8.91118 8.39587 8.60704C8.09804 8.30592 7.62933 8.27566 7.29556 8.5357C6.95926 8.79769 6.84766 9.29228 7.08369 9.65241C7.20013 9.83009 7.22662 10.0002 7.218 10.1954C7.21571 10.2458 7.21634 10.2964 7.21698 10.347Z" fill="#9F9F9F"/>
</g>
<defs>
<clipPath id="clip0_1995_2135">
<rect width="15" height="15" fill="white" transform="translate(0 0.5)"/>
</clipPath>
</defs>
</svg>
