<svg width="15" height="16" viewBox="0 0 15 16" fill="none" xmlns="http://www.w3.org/2000/svg">
<path d="M13.6325 4.79675C13.6152 4.76238 13.6152 4.72801 13.598 4.69364C13.5807 4.60772 13.5461 4.5218 13.5115 4.45306C13.2868 4.00626 12.9239 3.80005 12.4054 3.80005H5.21524C4.23005 3.80005 3.24487 3.80005 2.25968 3.80005C1.55104 3.80005 1.0498 4.2984 1.0498 4.98578C1.0498 6.87607 1.0498 8.78354 1.0498 10.6738V11.4643C1.0498 11.7393 1.13622 11.9799 1.29178 12.1861C1.53376 12.4954 1.86215 12.65 2.27697 12.65C4.81771 12.65 7.34116 12.65 9.8819 12.65H12.4226C12.4399 12.65 12.4572 12.65 12.4918 12.65C12.9066 12.6329 13.2177 12.461 13.4078 12.1689C13.477 12.0486 13.5288 11.9283 13.5807 11.808C13.598 11.7565 13.6152 11.7049 13.6498 11.6533V11.6362V4.81393L13.6325 4.79675ZM12.7683 5.22636V11.155L9.79548 8.23364L12.7683 5.22636ZM4.81771 8.21646L1.89672 11.1722V5.27791L4.81771 8.21646ZM6.56338 8.64607C5.5782 7.66655 4.59301 6.68704 3.60783 5.72471L2.51894 4.64209H12.1634L11.2819 5.5185C10.2276 6.54956 9.15598 7.59782 8.10166 8.64607C7.63499 9.11005 7.03005 9.11005 6.56338 8.64607ZM5.50906 8.80073L5.61277 8.90383C5.73376 9.02413 5.85474 9.14442 5.95845 9.26471C6.21771 9.52247 6.49425 9.69432 6.80536 9.78024C7.514 9.96927 8.15351 9.79743 8.68931 9.28189C8.8103 9.1616 8.914 9.05849 9.03499 8.9382C9.06956 8.90383 9.12141 8.85228 9.15598 8.81791L12.077 11.7736H2.58808L5.50906 8.80073Z" fill="#9F9F9F"/>
</svg>
