<?xml version="1.0" encoding="UTF-8"?>
<!DOCTYPE svg PUBLIC "-//W3C//DTD SVG 1.1//EN" "http://www.w3.org/Graphics/SVG/1.1/DTD/svg11.dtd">
<!-- Creator: CorelDRAW -->
<svg xmlns="http://www.w3.org/2000/svg" xml:space="preserve" width="2048px" height="2048px" style="shape-rendering:geometricPrecision; text-rendering:geometricPrecision; image-rendering:optimizeQuality; fill-rule:evenodd; clip-rule:evenodd"
viewBox="0 0 2048 2048"
 xmlns:xlink="http://www.w3.org/1999/xlink">
 <defs>
  <style type="text/css">
   <![CDATA[
    .fil0 {fill:none}
    .fil1 {fill:#212121;fill-rule:nonzero}
   ]]>
  </style>
 </defs>
 <g id="Layer_x0020_1">
  <metadata id="CorelCorpID_0Corel-Layer"/>
  <g id="_393279616">
   <rect id="_393278560" class="fil0" width="2048" height="2048"/>
   <rect id="_393276064" class="fil0" x="255.999" y="255.999" width="1536" height="1536"/>
  </g>
  <path class="fil1" d="M870.364 562.642c-153.115,93.2658 -326.374,295.787 -421.506,510.208 -46.9855,105.901 -74.5193,214.021 -70.4304,312.105 3.95079,94.7776 37.8485,180.592 113.209,245.893 79.1694,68.602 204.359,115.814 388.755,129.278 316.096,23.0752 518.014,-24.4418 636.032,-112.584 80.0505,-59.7863 121.145,-138.963 133.088,-227.397 12.3142,-91.1741 -5.75315,-192.791 -43.9618,-294.075 -87.704,-232.488 -279.495,-459.919 -455.785,-558.574 -44.5441,29.7555 -92.9316,44.0327 -141.278,43.0252 -47.9351,-0.999213 -95.2359,-17.0256 -138.123,-47.8796zm-480.006 484.458c104.159,-234.767 299.029,-457.005 467.094,-550.786l19.252 -10.741 16.8732 14.2406c36.0142,30.3957 76.1103,46.1221 116.159,46.9571 39.9142,0.831497 80.5701,-13.1327 117.884,-42.1111l16.0713 -12.4807 18.1795 9.35552c193.138,99.4052 407.693,348.259 503.429,602.037 41.7177,110.589 61.2827,222.745 47.4626,325.074 -14.191,105.07 -63.0036,199.134 -158.087,270.148 -129.613,96.802 -345.743,149.397 -678.784,125.085 -199.298,-14.5512 -336.806,-67.4859 -426.005,-144.778 -90.0674,-78.0449 -130.545,-179.752 -135.21,-291.644 -4.52717,-108.584 25.076,-226.295 75.6816,-340.355z"/>
  <path class="fil1" d="M1226.89 369.999c11.4898,-25.8154 10.9311,-47.6103 2.09173,-62.0386 -4.15985,-6.79134 -10.2886,-12.0791 -17.8748,-15.3744l-0.125197 0c-8.59253,-3.73229 -19.3583,-5.12717 -31.7658,-3.62481 -39.052,4.72914 -89.0469,37.0205 -137.221,111.08l-26.7484 41.1237 -26.7508 -41.1237c-47.7626,-73.4268 -96.9166,-106.015 -135.53,-111.367 -12.378,-1.71496 -23.2087,-0.432284 -31.9488,3.27874 -7.8319,3.32481 -14.1295,8.68111 -18.3685,15.5658 -8.97284,14.5689 -9.75473,36.7512 1.32756,63.2304 25.1138,60.0071 58.4953,104.816 96.0001,134.284 34.8957,27.4193 73.265,41.4177 111.494,41.7981 38.439,0.381496 77.4426,-12.8587 113.388,-39.913 38.9918,-29.3469 74.4154,-74.8725 102.032,-136.919zm56.5926 -95.289c19.2721,31.4599 22.4752,74.5158 1.65709,121.29 -32.1862,72.3119 -74.6209,126.235 -122.03,161.919 -47.452,35.7142 -99.8115,53.1839 -152.14,52.6642 -52.5378,-0.523229 -104.354,-19.0429 -150.494,-55.2981 -45.7252,-35.9268 -85.9359,-89.393 -115.5,-160.035 -19.6063,-46.8461 -15.9118,-89.8383 3.42284,-121.232 11.2429,-18.2563 27.5646,-32.3008 47.6197,-40.8154 19.1492,-8.12953 41.4898,-11.1343 65.6977,-7.77875 46.5638,6.45473 101.62,37.3087 153.549,102.638 52.7906,-66.2256 109.104,-96.867 156.451,-102.601 23.791,-2.88071 45.8244,0.398032 64.7658,8.6256l-0.0200788 0.046063c19.9028,8.6693 36.0201,22.6217 47.0209,40.578z"/>
  <path class="fil1" d="M1005.66 1326.75l0 -120.689c-37.6725,-10.8201 -65.3126,-27.0496 -82.9182,-48.8859 -17.5087,-21.8362 -26.361,-48.2953 -26.361,-79.3772 0,-31.4752 9.93426,-57.9343 29.8028,-79.3772 19.9677,-21.4429 46.4268,-33.7382 79.4764,-37.0819l0 -28.5248 41.7048 0 0 28.5248c30.5906,3.73701 54.8847,14.0658 72.9839,31.278 18,17.2134 29.5075,40.2307 34.5248,69.0497l-72.8859 9.54095c-4.42678,-22.7209 -15.9343,-38.0658 -34.6229,-46.1315l0 112.624c46.1315,12.4913 77.6068,28.7209 94.2296,48.5894 16.7209,19.8697 25.0819,45.3449 25.0819,76.5249 0,34.7221 -10.5248,64.0335 -31.4752,87.8363 -21.0496,23.902 -50.3611,38.4591 -87.8363,43.8697l0 53.902 -41.7048 0 0 -52.5248c-33.2469,-4.03347 -60.2953,-16.4268 -81.0497,-37.1811 -20.7543,-20.6551 -33.9343,-49.9666 -39.7382,-87.8363l75.2457 -8.06575c3.04961,15.3449 8.85355,28.624 17.3126,39.7382 8.35985,11.1154 17.8028,19.1799 28.2295,24.1973zm0 -302.559c-11.4106,3.83622 -20.361,10.4268 -27.1477,19.5732 -6.68859,9.24686 -10.0335,19.4764 -10.0335,30.5906 0,10.1315 3.04961,19.6725 9.14764,28.3276 6.19725,8.75434 15.541,15.8362 28.0335,21.2469l0 -99.7383zm41.7048 306.591c14.4591,-2.65512 26.1638,-9.34371 35.2134,-19.9677 9.04843,-10.7209 13.5732,-23.2122 13.5732,-37.6713 0,-12.8858 -3.83622,-23.902 -11.4095,-33.2469 -7.57442,-9.34371 -20.0658,-16.5236 -37.3772,-21.4417l0 112.328z"/>
 </g>
</svg>
