<svg width="15" height="15" viewBox="0 0 15 15" fill="none" xmlns="http://www.w3.org/2000/svg">
<g clip-path="url(#clip0_1899_2525)">
<path d="M0 4.52998C0.0294153 3.1891 0.528583 2.05082 1.46393 1.09819C1.64072 0.918178 1.8187 0.739355 2.00024 0.5638C2.77454 -0.185056 3.95412 -0.189512 4.72546 0.559939C5.16639 0.988578 5.60078 1.42435 6.03043 1.86427C6.78304 2.63481 6.79582 3.79033 6.05449 4.57661C5.69052 4.96277 5.30901 5.3326 4.93047 5.7048C4.84431 5.78975 4.82202 5.86461 4.86451 5.98224C5.599 8.02504 6.98835 9.40809 9.03019 10.1403C9.13388 10.1774 9.2049 10.1611 9.28215 10.083C9.64405 9.71642 10.0098 9.35373 10.3759 8.99103C11.1392 8.23475 12.3794 8.22822 13.1457 8.98034C13.5771 9.40393 14.0046 9.83138 14.428 10.263C15.1694 11.019 15.1958 12.1831 14.4771 12.9536C13.9351 13.5347 13.3718 14.0928 12.6486 14.4585C11.8674 14.8536 11.0417 15.0573 10.1703 14.986C9.17162 14.9044 8.20953 14.6465 7.28518 14.2565C5.41597 13.4675 3.87955 12.2363 2.58082 10.694C1.62705 9.56136 0.889886 8.30485 0.441229 6.88764C0.198182 6.12007 0.0282268 5.33824 0 4.52998ZM10.4056 14.1395C11.1151 14.1285 11.7165 13.9698 12.2864 13.6755C12.8672 13.3752 13.3138 12.915 13.7643 12.4585C14.2634 11.9523 14.264 11.3208 13.7616 10.8134C13.3732 10.4213 12.9831 10.0307 12.5912 9.64216C12.0935 9.14847 11.436 9.14966 10.9404 9.64335C10.5678 10.0144 10.2009 10.3907 9.82321 10.7564C9.55431 11.0169 9.22956 11.114 8.86736 10.9943C7.81673 10.6465 6.87069 10.1136 6.05479 9.36116C5.11142 8.4911 4.46042 7.43243 4.03494 6.22671C3.88816 5.81084 3.96571 5.45439 4.27383 5.14486C4.64821 4.76851 5.02704 4.39631 5.39874 4.01727C5.84621 3.56101 5.85423 2.92206 5.41063 2.46461C4.9899 2.03062 4.56263 1.60257 4.12794 1.18255C3.68077 0.750346 3.0473 0.753911 2.59865 1.18314C2.37848 1.39375 2.1592 1.60673 1.95507 1.83308C1.12996 2.7474 0.739838 3.81231 0.903554 5.04654C1.05984 6.22433 1.44164 7.33113 2.01836 8.3702C2.7071 9.61127 3.61035 10.6771 4.67703 11.6065C5.72112 12.5164 6.88258 13.2314 8.19913 13.6793C8.93719 13.9303 9.69218 14.0988 10.4053 14.1401L10.4056 14.1395Z" fill="#9F9F9F"/>
<path d="M13.5617 5.99377C13.5456 6.19517 13.4188 6.36656 13.242 6.40963C13.0233 6.46281 12.8314 6.37458 12.7309 6.16903C12.5996 5.90049 12.4876 5.62127 12.3393 5.36284C11.5371 3.96523 10.405 2.93269 8.91437 2.30474C8.75155 2.23612 8.61487 2.14641 8.58575 1.95749C8.529 1.59123 8.84395 1.34973 9.20229 1.49142C9.78643 1.72193 10.3308 2.0267 10.8344 2.40187C12.0095 3.27638 12.9083 4.37159 13.4776 5.72761C13.5136 5.81316 13.5341 5.90525 13.5617 5.99436V5.99377Z" fill="#9F9F9F"/>
<path d="M10.7772 6.3933C10.59 6.39152 10.4549 6.30567 10.3812 6.13487C10.0736 5.42284 9.56675 4.914 8.85158 4.60864C8.62903 4.51358 8.53989 4.27594 8.62398 4.05851C8.70599 3.84641 8.94636 3.7273 9.16801 3.8176C10.1179 4.20584 10.7939 4.87568 11.1754 5.8298C11.2889 6.11378 11.0779 6.3933 10.7769 6.3933H10.7772Z" fill="#9F9F9F"/>
</g>
<defs>
<clipPath id="clip0_1899_2525">
<rect width="15" height="15" fill="white"/>
</clipPath>
</defs>
</svg>
